<svg t="1713260587830" class="icon" viewBox="0 0 1024 1024" version="1.1" xmlns="http://www.w3.org/2000/svg" p-id="44198" width="32" height="32"><path d="M852.906667 356.096a268.117333 268.117333 0 0 0-511.744-88.32 122.026667 122.026667 0 0 0-115.370667 9.6 121.6 121.6 0 0 0-52.778667 125.909333h-2.432A170.453333 170.453333 0 0 0 0 573.610667a170.453333 170.453333 0 0 0 170.581333 170.325333h657.92a194.816 194.816 0 0 0 195.114667-182.442667 194.730667 194.730667 0 0 0-170.752-205.397333z" fill="#BBDEFB" p-id="44199"></path><path d="M706.688 865.621333c0-26.752-48.768-97.322667-48.768-97.322666s-48.725333 70.570667-48.725333 97.322666a48.682667 48.682667 0 0 0 97.493333 0z m-292.437333 0c0-26.752-48.725333-97.322667-48.725334-97.322666s-48.725333 70.570667-48.725333 97.322666a48.682667 48.682667 0 0 0 97.450667 0z m146.218666-121.685333c0-26.752-48.725333-97.28-48.725333-97.28s-48.768 70.528-48.768 97.28a48.682667 48.682667 0 0 0 97.493333 0z" fill="#2196F3" p-id="44200"></path></svg>
