<svg t="1713325966521" class="icon" viewBox="0 0 1024 1024" version="1.1" xmlns="http://www.w3.org/2000/svg" p-id="12731" width="32" height="32"><path d="M800.9 241c-28.8 0-56.2 5.9-81.1 16.5C703.5 156.3 615.7 79 509.9 79c-92.8 0-171.6 59.4-200.7 142.2-24.8-10.1-51.9-15.7-80.4-15.7C111.3 205.5 16 300.7 16 418.2c0 117.5 95.2 212.7 212.7 212.7 5.3 0 10.6-0.2 15.8-0.6v0.6h653.6c65.3-34.8 109.8-103.6 109.8-182.8 0.1-114.4-92.6-207.1-207-207.1zM813.4 716.1c-7.9 0-78.6 88.2-78.6 131.6 0 43.4 35.2 77 78.6 77 43.4 0 78.6-33.6 78.6-77s-69.8-131.6-78.6-131.6zM512 716.1c-7.9 0-78.6 88.2-78.6 131.6 0 43.4 35.2 77 78.6 77s78.6-33.6 78.6-77-69.8-131.6-78.6-131.6zM224.1 820.4l87.3-12.4 11.1-49.8-48.8-15.4-54.3 69.4 32.9-81.8-37.6-34.6-37.7 34.6 33 82-54.5-69.6-48.8 15.3 11.1 49.9 87.5 12.4-87.5 12.5-11.1 49.9 48.8 15.3 54.5-69.6-33 82 37.7 34.5 37.6-34.5-32.9-81.9 54.4 69.4 48.7-15.3-11.1-49.9z" fill="#9FDAFF" p-id="12732"></path></svg>
