<svg t="1713325810432" class="icon" viewBox="0 0 1024 1024" version="1.1" xmlns="http://www.w3.org/2000/svg" p-id="5622" width="32" height="32"><path d="M660.48 665.6a122.88 122.88 0 1 1-118.92736 153.9072 20.48 20.48 0 1 1 39.64928-10.32192A81.96096 81.96096 0 0 0 742.4 788.48a81.92 81.92 0 0 0-81.92-81.92H97.28a20.48 20.48 0 0 1 0-40.96h563.2z m133.12-143.36a112.64 112.64 0 1 0-103.424-157.36832 20.48 20.48 0 1 1-37.56032-16.30208 153.6 153.6 0 1 1 156.99968 213.8112 20.48 20.48 0 0 1-5.77536 0.8192H97.28a20.48 20.48 0 0 1 0-40.96h696.32z m-348.16-184.32a92.16 92.16 0 1 0-86.56896-123.88352 20.48 20.48 0 0 1-38.44096-14.09024 133.16096 133.16096 0 1 1 141.70112 177.88928 20.45952 20.45952 0 0 1-6.4512 1.04448H97.28a20.48 20.48 0 0 1 0-40.96h348.16z" fill="#3973DC" p-id="5623"></path></svg>
